/* XPM */
static char *result[] = {
/* columns rows colors chars-per-pixel */
"36 50 84 1 ",
"  c #635445",
". c #685645",
"X c #675846",
"o c #6D5946",
"O c #725D46",
"+ c #7A5F46",
"@ c #705E48",
"# c #776247",
"$ c #7C6347",
"% c #7C6448",
"& c #826646",
"* c #876B47",
"= c #836649",
"- c #856A49",
"; c #8B6C4C",
": c #906F4D",
"> c #83704D",
", c #8D714B",
"< c #94724E",
"1 c #96794A",
"2 c #9A7C4B",
"3 c #816C56",
"4 c #8B6F55",
"5 c #8A735E",
"6 c #967350",
"7 c #9A7652",
"8 c #957D51",
"9 c #9D7A55",
"0 c #9F7B58",
"q c #A17C56",
"w c #A47E58",
"e c #957C64",
"r c #9F814C",
"t c #9D8252",
"y c #A1834D",
"u c #AA8B4F",
"i c #A28551",
"p c #A68A54",
"a c #AC8E52",
"s c #A7805B",
"d c #AA825B",
"f c #A3895C",
"g c #B0875F",
"h c #AE9153",
"j c #AC925A",
"k c #B29655",
"l c #B59856",
"z c #B29759",
"x c #B59959",
"c c #B99D59",
"v c #BDA25D",
"b c #9B8874",
"n c #95857C",
"m c #B48A61",
"M c #B98E64",
"N c #BC9166",
"B c #BF9368",
"V c #A28E7B",
"C c #AB977F",
"Z c #BBA261",
"A c #C1A65F",
"S c #C3A85F",
"D c #C3956A",
"F c #C6986C",
"G c #C6AC65",
"H c #C8AE64",
"J c #C8AF68",
"K c #CAB165",
"L c #CBB469",
"P c #CFB86E",
"I c #D0B96E",
"U c #C1A876",
"Y c #D2BB70",
"T c #A69486",
"R c #AF9B83",
"E c #B09E8D",
"W c #B5A38B",
"Q c #B1A29C",
"! c #B6A8A0",
"~ c #B9ABA1",
"^ c #C0AD91",
"/ c #C1AF98",
"( c #CCBCA2",
") c None",
/* pixels */
"))))))))))))))))))))))))))))))))))))",
"))))))))))))))))))))))))))))))))))))",
"))))))))))))))))))))))))))))))))))))",
"))))))))))))))))))))))))))))))))))))",
"))))))))))))))FFFFFFFw6)))))))))))))",
"))))))))))))FFFFFFFFFDMmq)))))))))))",
")))))))))FDFFFMMDDFDmMFFDmm9))))))))",
"))))))))FDDMgmMMDDFFDmdmBMBgq)))))))",
")))))))FDMmMMDMMMgdwwMg97mMmwd))))))",
"))))))FFFDDMdq<:7q76660w0;9mMw6)))))",
")))))FFDMd9:;;<,;;;;:<-;6;&;7m7;))))",
")))))DDd9:;;:;-$O...o=,;;;6==wq%))))",
")))))Bq<;;4==#o .%#%o%-%=;4qww4+))))",
")))))7<=&;#@*;>%><-1trtt9,$=:=+=))))",
")))))064;;188;<t8pihrrHLk28-wwwM))))",
")))))mdm7ih1zGvh,xPx2rHLuri467wq))))",
")))))6;6,vu1xIvk1lLvirHLh2yi,;<<))))",
")))))<;:;vu1cIvh1lLlrrHLu2ra4<<6))))",
")))));;:<vu1xIvu1lLlrrKLh2yp:;66))))",
")))));;:4cu2lIvk1lLlrrGKa2yu;;66))))",
")))));;:6pp1lLvk1lKlyrvKa1ia:;::))))",
")))))=;79tu1lPvl1lKcypvvai2p;;<=))))",
")))));;<:tu1lPvh1kScyrHLl221;;:=))))",
"))))):;:<ru1lLvk1kKciySHh22;q7:=))))",
"))))));:6tp1kKvz1lHxrrvKh22;161=))))",
"))))))<<6tu1kKvh1kHvyrGKu22:::6=))))",
"))))))6<,tltvLGcivJZjhGLU^C4;:6)))))",
"))))))<66tGGHHHGGGKGGGJJ(QT4;6<)))))",
"))))))<6:*111111,1111,1rE!R;:6;)))))",
")))))):<<<<%ivhr%ixu,;lZ/n~e;:;)))))",
"))))))<6;&21lKvk1lKvyyGLW3be;:;)))))",
"))))))::,*21lKvh1lHly2SKCVW5;<;)))))",
"))))))<q9;21lKAk1kHcyySHfTV%::;)))))",
"))))))66;*21kKAk1kHcyySHu11&:6;)))))",
"))))))6<;=12kGkp2kHcyySKa22;:6;)))))",
"))))))66;;22lGcl2lScyySHh22;<6:)))))",
")))))):6;;21lLSk1lHcyrGKa22,<6;)))))",
"))))));6;*21lJck1hHxirvKa2<79<;)))))",
"))))));:;&iicLGctvKvapJKlu1<6:;)))))",
"))))))-;;=jJJJJJJJJJJHKKSKj:6:&)))))",
"))))));;;;;<2r2111r1112211,:66=)))))",
"))))));<==&$rxat%ylp>*hlr-$;;;=)))))",
"))))))=:;;;1lLvh1kKctrSKa2;:;;&)))))",
")))))))::=&1lKva1lSciySKa2<:;;+)))))",
")))))));&$*1kKvu2kHkrrSKu2,;;&O)))))",
")))))))$&$$-yvl2*yxu*1cxy,$&;+o)))))",
")))))))OooXX#-*#o#>%Xo%-$X.O%. )))))",
"))))))))))))))))))))))))))))))))))))",
"))))))))))))))))))))))))))))))))))))",
"))))))))))))))))))))))))))))))))))))"
};
