/* XPM */
static char *_490943092864af2c7b1d137bb57b301kHKROETk0fEdzy5W[] = {
/* columns rows colors chars-per-pixel */
"41 50 254 2 ",
"   c None",
".  c #5D5044",
"X  c #5D5144",
"o  c #5D5145",
"O  c #5E5144",
"+  c #5E5145",
"@  c #5E5244",
"#  c #5E5245",
"$  c #5F5245",
"%  c #5E5146",
"&  c #605245",
"*  c #605345",
"=  c #615345",
"-  c #625345",
";  c #605347",
":  c #635445",
">  c #645445",
",  c #655545",
"<  c #665545",
"1  c #675545",
"2  c #675645",
"3  c #645546",
"4  c #685645",
"5  c #695645",
"6  c #695745",
"7  c #6A5745",
"8  c #6B5745",
"9  c #685646",
"0  c #685746",
"q  c #6B5845",
"w  c #6D5845",
"e  c #6E5845",
"r  c #6F5945",
"t  c #6C5846",
"y  c #6C5946",
"u  c #6F5A46",
"i  c #6F5B47",
"p  c #705945",
"a  c #705A45",
"s  c #715A45",
"d  c #725A45",
"f  c #735A45",
"g  c #735B45",
"h  c #705B46",
"j  c #715B47",
"k  c #735B46",
"l  c #745B45",
"z  c #755B45",
"x  c #735C46",
"c  c #725C47",
"v  c #765C45",
"b  c #775C45",
"n  c #775D45",
"m  c #755C46",
"M  c #765F47",
"N  c #785E46",
"B  c #795E46",
"V  c #785E47",
"C  c #715E48",
"Z  c #695B51",
"A  c #756147",
"S  c #7A6047",
"D  c #7B6047",
"F  c #7C6047",
"G  c #796048",
"H  c #7A6048",
"J  c #7A6148",
"K  c #7B6148",
"L  c #7E6248",
"P  c #7F6248",
"I  c #7E6249",
"U  c #7E6349",
"Y  c #7F6349",
"T  c #796548",
"R  c #7B674A",
"E  c #7B6D64",
"W  c #7F7168",
"Q  c #816448",
"!  c #806449",
"~  c #816449",
"^  c #816549",
"/  c #826449",
"(  c #826549",
")  c #836549",
"_  c #836649",
"`  c #83664A",
"'  c #846649",
"]  c #856649",
"[  c #846749",
"{  c #84664A",
"}  c #85664A",
"|  c #84674A",
" . c #85674A",
".. c #86674A",
"X. c #86674B",
"o. c #86684A",
"O. c #87684A",
"+. c #87684B",
"@. c #88694A",
"#. c #88694B",
"$. c #886A4B",
"%. c #896A4B",
"&. c #8A6A4B",
"*. c #8A6B4B",
"=. c #8B6B4B",
"-. c #8B6D4B",
";. c #8C6E4B",
":. c #8A6B4C",
">. c #8B6B4C",
",. c #8C6B4C",
"<. c #8C6C4C",
"1. c #8D6C4C",
"2. c #8D6D4C",
"3. c #8C6C4D",
"4. c #8D6D4D",
"5. c #8E6D4C",
"6. c #8E6D4D",
"7. c #8E6E4D",
"8. c #8F6E4D",
"9. c #8E6E4E",
"0. c #906E4D",
"q. c #906F4D",
"w. c #916F4D",
"e. c #906F4E",
"r. c #8E704A",
"t. c #91704D",
"y. c #92704D",
"u. c #91704E",
"i. c #92704E",
"p. c #93714E",
"a. c #93714F",
"s. c #91734E",
"d. c #94714E",
"f. c #94724E",
"g. c #95724E",
"h. c #95724F",
"j. c #95734F",
"k. c #96724F",
"l. c #96734F",
"z. c #97734F",
"x. c #91744E",
"c. c #92744E",
"v. c #92744F",
"b. c #92754F",
"n. c #97744F",
"m. c #8D6D50",
"M. c #8E6F50",
"N. c #887550",
"B. c #897651",
"V. c #897853",
"C. c #8B7854",
"Z. c #917050",
"A. c #937150",
"S. c #947150",
"D. c #967350",
"F. c #937550",
"G. c #977450",
"H. c #977452",
"J. c #967453",
"K. c #987450",
"L. c #987550",
"P. c #997551",
"I. c #9A7651",
"U. c #987552",
"Y. c #997552",
"T. c #9A7652",
"R. c #9B7752",
"E. c #997654",
"W. c #997756",
"Q. c #907E54",
"!. c #917E54",
"~. c #9C7852",
"^. c #9C7853",
"/. c #9B7E52",
"(. c #9C7854",
"). c #9D7954",
"_. c #9F7A55",
"`. c #9E7A56",
"'. c #9F7A56",
"]. c #9E7A57",
"[. c #A07B55",
"{. c #A17B55",
"}. c #A07B56",
"|. c #A17B56",
" X c #A07B57",
".X c #A17C56",
"XX c #A17C57",
"oX c #A27D57",
"OX c #A47D57",
"+X c #A27D58",
"@X c #A47E58",
"#X c #A67F5A",
"$X c #887B72",
"%X c #928056",
"&X c #96835A",
"*X c #A28654",
"=X c #A68059",
"-X c #A78059",
";X c #A7805A",
":X c #A8815A",
">X c #A9815A",
",X c #A9825A",
"<X c #A9825B",
"1X c #AA825B",
"2X c #A8815C",
"3X c #AA835C",
"4X c #AB835C",
"5X c #AB835D",
"6X c #AC845C",
"7X c #AE855F",
"8X c #B0875F",
"9X c #B1885F",
"0X c #AA9059",
"qX c #AB9059",
"wX c #AB9159",
"eX c #AC935B",
"rX c #AD8560",
"tX c #B28860",
"yX c #B28960",
"uX c #B38961",
"iX c #B58B62",
"pX c #B58B63",
"aX c #B68B62",
"sX c #B68C62",
"dX c #B68C63",
"fX c #B78C63",
"gX c #B88D63",
"hX c #B88D64",
"jX c #B98E64",
"kX c #BA8F65",
"lX c #BB8F65",
"zX c #A5906F",
"xX c #A6926E",
"cX c #BB9065",
"vX c #BB9066",
"bX c #BD9166",
"nX c #BD9167",
"mX c #BF9368",
"MX c #B29E7D",
"NX c #C09368",
"BX c #C19469",
"VX c #C3956A",
"CX c #C3966A",
"ZX c #C4966B",
"AX c #C4976B",
"SX c #C5976B",
"DX c #C5976C",
"FX c #C6986C",
"GX c #C7986C",
"HX c #C6986D",
"JX c #C6996D",
"KX c #C7996D",
"LX c #C6996E",
"PX c #B5A281",
/* pixels */
"                                                                                  ",
"                                                                                  ",
"                                                                                  ",
"                                                                                  ",
"                          SXSXLXLXSXSXGXGXSX8X:X:X                                ",
"                    GXLXLXLXLXSXSXSXLXLXBXbXLXGXBXyX5X@X                          ",
"                LXDXGXSXNXjXiX8XjXbXDXGXLXjXiXjXSXBXbXBX@XP.                      ",
"              LXLXSXjX8X6XiXbXSXSXbXjXlXjXjXjX[.oX8XjXfXiX:X@X                    ",
"            LXGXGXjXjXSXBXbX5X-X-X6X-XP.n.].:X9X[.A.].iXjX6X:XoX                  ",
"          LXLXSXGXNXlX:X[.y.y.>.o.D.P.G.g.D.w.y.].+X&.,.].iXtXg.y.                ",
"          LXGXBXyX[.P.w.>.>.g.w.4.o.Y Q Q >.w.<.&.4.4.' ' ' @X5X'                 ",
"          LXbX[.G.y.&.=.4.>.Q C 9 2 - o - 2 y Q o.,.>.W.Z.4.[.].Q                 ",
"          jX[.g.>.&.4.Q C 9 - o o - o o - o - - 9 y P +.W.:X).O.m                 ",
"          A.y.o.Q &.M - o - o - - o o - o o o o - - ; y B 4.' P m.                ",
"          rX].W.G.r.A o - - o o o o - o @ - ; o o o o o j +XtXpXdX                ",
"          :X5X5X].*XB.o o o - o ; - ; o * @ * o - ; - o 0 4.w.(.P.                ",
"          g.<.<.w.wX%X@ - o o - * @ - o - o o - o o o - 2 <.&.y.G.                ",
"          g.w.<.w.wX!.@ o - o @ @ * - o @ * - o o - o - 2 &.g.g.g.                ",
"          >.4.<.4.wXC.@ o - @ * - o o - * @ - o - ; * @ 2 >.4.g.D.                ",
"          ' 4.,.w.wX&Xo - o * ; o - o o ; o o - o o @ * 2 >.>.y.D.                ",
"          Q 4.4.P./.xXZ @ - o o o ; - o - o o o ; o ; o 2 4.o.g.g.                ",
"          ' r.D.@Xy.PXW @ o - o @ * o o ; o - o * o - o 2 >.+.g.o.                ",
"          ' 4.w.G.x.MX$Xo ; $ $ * o o - * @ - - @ * o - x 4.' y.'                 ",
"            4.4.g.x.zXE o $ $ $ @ - - o @ * o o - @ - o F ].W.A.o.                ",
"            4.4.D.y.C.$ $ $ $ $ * ; - o * @ o o o o @ * S G.R.n.o.                ",
"            w.w.g.F.B.o $ $ $ $ @ o o - @ * ; - o - * ; S y.y.g.o.                ",
"            g.G.D.x.B.o $ $ $ $ * @ o o - o - o - - o o J >.4.n.                  ",
"            G.g.D.F.B.o $ $ $ $ o - - o - o o o o o - o J >.y.g.                  ",
"            4.n.n.;.T o - o o - o - o o - o o - ; o ; o J 4.D.&.                  ",
"            4.z.n.;.R o o - o o - o o - @ * - o * o - o V y.D.o.                  ",
"            =.n.y.o.x @ o ; o - * @ - o * @ - o @ - o - V 4.g.+.                  ",
"            4.g.>.Q q * @ * o - @ * ; o ; o o - o o - o m 4.g.>.                  ",
"            4.P.].g.y o - - o - o ; * @ - o * @ * o o - f >.G.+.                  ",
"            y.P.P.&.y o o o o o o - @ * - o ; o @ - o - f 4.n.o.                  ",
"            P.g.4.o.y - @ * ; - - o o - o o - o o - o - v 4.D.o.                  ",
"            D.G.y.' y o * ; o o o o - o - o o - o o - o V D.g.w.                  ",
"            D.g.w.' y o @ o - o * @ * o - o o - - o o - S g.z.w.                  ",
"            4.D.w.&.y o - o o - ; o @ - o o - o o - o 2 N.G.g.4.                  ",
"            Q y.4.' y @ ; o o - - o o - - o - o o @ * 4 Y.R.g.w.                  ",
"            ' w.<.' q @ * o - o o - o o - o o - ; * @ 9 0.z.w.O.                  ",
"            Q 4.<.&.S - o o - o - o o - o o o o o - o 9 4.D.D.'                   ",
"            Q w.&.&.Q - o - ; o @ * - o o - - @ o o - 9 4.g.w.'                   ",
"            Q g.&.&.P ; * * * @ * * - 1 9 4 4 * - o - 9 4.w.4.'                   ",
"              4.&.4.m ; * * 4 q d q v v d q d e 4 ; o 9 4.4.>.Q                   ",
"              4.4.=.v * > e z b v v d d q q d g d q 1 4 4.w.' B                   ",
"              =.o.Q f 1 4 4 e d v v d q z v v d 4 4 1 q o.4.Q m                   ",
"              F F F d > 1 e q d v v x f d v v v d q - 4 P &.B w                   ",
"              y q f > * 4 4 4 4 4 4 - @ @ 1 4 1 4 4 1 - y P 2 2                   ",
"                                                                                  ",
"                                                                                  "
};
