/* XPM */
static char *_ec404527a9245178ca3dc55caa9170dI6XhRgQ5wLGOQbkv[] = {
/* columns rows colors chars-per-pixel */
"50 50 57 1 ",
"  c None",
". c #0E0E0D",
"X c #100F0F",
"o c #10100F",
"O c #141413",
"+ c #191716",
"@ c #181817",
"# c #1A1A19",
"$ c #201F1E",
"% c #242423",
"& c #2D2A27",
"* c #2D2C2A",
"= c #34322E",
"- c #363431",
"; c #393633",
": c #3B3935",
"> c #3F3D39",
", c #413F3B",
"< c #464441",
"1 c #494743",
"2 c #4B4945",
"3 c #4E4C49",
"4 c #504E4B",
"5 c #53514D",
"6 c #575551",
"7 c #5B5956",
"8 c #5E5C59",
"9 c #615F5B",
"0 c #64625E",
"q c #666460",
"w c #696763",
"e c #6C6A66",
"r c #6E6C69",
"t c #716E6A",
"y c #74726E",
"u c #767471",
"i c #797773",
"p c #7D7A75",
"a c #7E7C79",
"s c #817D76",
"d c #827E79",
"f c #85827C",
"g c #88847F",
"h c #878480",
"j c #898681",
"k c #8C8984",
"l c #8E8C88",
"z c #908C87",
"x c #918E89",
"c c #94918D",
"v c #979590",
"b c #9D9A97",
"n c #9E9C99",
"m c #A19E9B",
"M c #A3A19E",
"N c #A6A4A1",
"B c #AAA8A5",
/* pixels */
"                                                  ",
"                                                  ",
"                                                  ",
"                                                  ",
"     *%$$#%%#####OOXXXOOOOoOOo.Ooo@o@Ooo@@O@      ",
"    #1w8799qqertequiiiaiuuupuuuuiiuytteewq72,     ",
"    OuNmmmmmmmmNMMMmnmMNNnmmnbbbbbnmbbnnvxhq>     ",
"    @jBnvcxxcxxcccxxlxxxxlkllxkkxxxxxxxkkla7:     ",
"    @kNvllkklllxzjzzzzzzlkkkzzjjkllkkllkkka7:.    ",
"    OkMvllhklllljjzxjzjzkkkkzkjjjjjkkkkhkkd8:.    ",
"    OhMvlkkklxllzzzjzjgzlkkkkkjjkjjjhhhhkkf8>.    ",
"    OhNlkkkllllljjgzzggzkkkjgjjjjjljhhhkkjd8;.    ",
"    #lMlkkkklkkjjzjjzggggggffgffffffgjhhhha7=.    ",
"    #jMclkkllhjjzgggggggggddddddffpfhlkghau8=X    ",
"    @aNclkklkkjjgggdgggggddffgffffgjlkjhfga9-O    ",
"    #iMcllhkkhjjgggggggdggfggggggjkljhggdhh0;O    ",
"    #yMcczgggggggzgggddddgfdgggggklgfffffgg0>.    ",
"    @eMvgzgggggggggggfdgdgfggggzkggfsfsfffgw:.    ",
"    @ybzgggggggggggggddgggddggggkggffssfhhg0;.    ",
"    #ymzcgggggggjjjgggggddddfgggggfdpspfghfw:     ",
"    +imzgzggggggzjgggfgfssssfggffffssspsffhq;     ",
"    #iMxzgzgfffgzjgggddddssdgggfffffssifffd8;o    ",
"    #iMccgzggffgggffddddddggfgfsfggffspghau7:O    ",
"    +uMvzcggdfffggfdddgdgggddssffffffsfgjhu7:O    ",
"    +iMczgggffggffdsddfdsssfsssffffsffhhhgs7-O    ",
"    #aMccgggdfggfdddfffdddfsffffffffffjgffp0-O    ",
"    #uMvxzgdfgggssdfgfddfdsssggggffgfgggfds0:O    ",
"    #uncxgggggggssfgffdfdsssggggggghffggfas0:X    ",
"    +ynczzggkgffsdggdddddssgggfgjjjgdfghfdfw:X    ",
"    .yMxzgffggddfggfddfdssfggfgglkggffhjffhr:X    ",
"    .uMcxzgffffggzgfffsssfffdfzzlhgffhjjghjr:O    ",
"    .uNcxggffggjkggfgffssdffffkghfffghkhhfhy;O    ",
"    oiNvlkjffjjjgggggggffddffhgfddhhhjhhjgde;     ",
"    OiMlkljffjlkggggfggffdfggghffdddgjhhgfi0:     ",
"    @iNxlkhggkxkgggffsfffggggghghddffhhgaie9>     ",
"    @imxkkhhggkgfgfsssfffggfffffhfffhkhhgfy9:     ",
"    @pNxlgkggjggfffsfffffgfdssafhkjllkjjhhpw;     ",
"    OaNlklclkgffffssfssffffspffghhjjkjgjghde:O    ",
"    oaNlkzckgfsffdffsppffhfppfggjggfgffhhhfe:O    ",
"    OaNvkljffffffsffssfggfappfggffffffgghjhw;o    ",
"    +pMckjjfgghhfffffffhfffppaffdspddfhfgfaw;o    ",
"    @ybckjljgghkgffffgghffpppdffdadddadfffpw:.    ",
"    #uvlkjjjhghhhfffffffffsppppfffaaaipdaae7;.    ",
"    @ekppppyyyytryyuyyytyyyyeewruiuurrt0985<*.    ",
"    #<655532133334555555553322<2455541<,:;;=&     ",
"     &#@+OO@@@@@+OOOOOO@OOOO+@+OOO++O+OO+++       ",
"                                                  ",
"                                                  ",
"                                                  ",
"                                                  "
};
